# This file uses centimeters as units for non-parametric coordinates.

mtllib obst.mtl
g default
v -2.182872 59.850949 -11.502207
v 3.537923 59.850949 -11.600016
v 17.072927 59.850949 8.493277
v 14.753927 59.850949 12.851584
v -12.149180 59.850949 12.851584
v -14.618998 59.850949 8.395498
v 3.413411 1.187849 -18.881205
v 24.523702 1.187849 12.457876
v 24.523702 55.886349 12.457876
v 3.413411 55.886349 -18.881205
v 22.204702 1.187849 16.816183
v -19.302378 1.187849 16.816183
v -19.302378 55.886349 16.816183
v 22.204702 55.886349 16.816183
v -21.772074 1.187849 12.360098
v -2.307383 1.187849 -18.783396
v -2.307383 55.886349 -18.783396
v -21.772074 55.886349 12.360098
vt 0.457100 0.565900
vt 0.416500 0.588400
vt 0.416500 0.833800
vt 0.456200 0.854900
vt 0.639500 0.731500
vt 0.638600 0.679300
vt 0.326100 0.500600
vt 0.040200 0.500600
vt 0.040200 0.999500
vt 0.326100 0.999500
vt 0.379100 0.000500
vt 0.000500 0.000500
vt 0.000500 0.499400
vt 0.379100 0.499400
vt 0.664400 0.000500
vt 0.380300 0.000500
vt 0.380300 0.499400
vt 0.664400 0.499400
vt 0.420100 0.922900
vt 0.705900 0.730300
vt 0.380300 0.523100
vt 0.380300 0.901700
vt 0.705000 0.678100
vt 0.420900 0.500600
vt 0.758400 0.000500
vt 0.706200 0.000500
vt 0.706200 0.499400
vt 0.758400 0.499400
vt 0.000500 0.500600
vt 0.000500 0.999500
vt 0.705000 0.000500
vt 0.705000 0.499400
vn -0.168494 0.981268 0.093397
vn -0.168494 0.981268 0.093397
vn 0.166299 0.982096 0.088500
vn 0.166299 0.982096 0.088500
vn -0.003600 0.978060 -0.208292
vn -0.003600 0.978060 -0.208292
vn 0.829379 0.000000 -0.558686
vn 0.829379 0.000000 -0.558686
vn 0.829379 0.000000 -0.558686
vn 0.829379 0.000000 -0.558686
vn 0.000000 0.000000 1.000000
vn 0.000000 0.000000 1.000000
vn 0.000000 0.000000 1.000000
vn 0.000000 0.000000 1.000000
vn -0.847998 0.000000 -0.529999
vn -0.847998 0.000000 -0.529999
vn -0.847998 0.000000 -0.529999
vn -0.847998 0.000000 -0.529999
vn 0.586501 0.707101 -0.395000
vn 0.586501 0.707101 -0.395000
vn 0.586501 0.707101 -0.395000
vn 0.586501 0.707101 -0.395000
vn 0.000000 0.707107 0.707107
vn 0.000000 0.707107 0.707107
vn 0.000000 0.707107 0.707107
vn 0.000000 0.707107 0.707107
vn -0.599604 0.707105 -0.374803
vn -0.599604 0.707105 -0.374803
vn -0.599604 0.707105 -0.374803
vn -0.599604 0.707105 -0.374803
vn -0.017099 0.000000 -0.999854
vn -0.017099 0.000000 -0.999854
vn -0.017099 0.000000 -0.999854
vn -0.017099 0.000000 -0.999854
vn 0.882820 0.000000 0.469711
vn 0.882820 0.000000 0.469711
vn 0.882820 0.000000 0.469711
vn 0.882820 0.000000 0.469711
vn -0.874619 0.000000 0.484811
vn -0.874619 0.000000 0.484811
vn -0.874619 0.000000 0.484811
vn -0.874619 0.000000 0.484811
vn -0.008200 0.878275 -0.478086
vn -0.008200 0.878275 -0.478086
vn -0.003600 0.978060 -0.208292
vn -0.003600 0.978060 -0.208292
vn 0.375312 0.905129 0.199706
vn 0.375312 0.905129 0.199706
vn 0.166299 0.982096 0.088500
vn 0.166299 0.982096 0.088500
vn -0.381516 0.899839 0.211509
vn -0.381516 0.899839 0.211509
vn -0.168494 0.981268 0.093397
vn -0.168494 0.981268 0.093397
s off
g obst1:Line019
usemtl initialShadingGroup
f 6/1/1 5/2/2 4/3/3 3/4/4 2/5/5 1/6/6
f 10/7/7 9/8/8 8/9/9 7/10/10
f 14/11/11 13/12/12 12/13/13 11/14/14
f 18/15/15 17/16/16 16/17/17 15/18/18
f 3/4/19 9/19/20 10/20/21 2/5/22
f 5/2/23 13/21/24 14/22/25 4/3/26
f 1/6/27 17/23/28 18/24/29 6/1/30
f 17/25/31 10/26/32 7/27/33 16/28/34
f 9/8/35 14/29/36 11/30/37 8/9/38
f 13/31/39 18/15/40 15/18/41 12/32/42
f 10/20/43 17/23/44 1/6/45 2/5/46
f 14/22/47 9/19/48 3/4/49 4/3/50
f 18/24/51 13/21/52 5/2/53 6/1/54
